<mxfile host="app.diagrams.net" agent="Mozilla/5.0 (Windows NT 10.0; Win64; x64) AppleWebKit/537.36 (KHTML, like Gecko) Chrome/131.0.0.0 Safari/537.36" version="26.0.2">
  <diagram name="Page-1" id="2YBvvXClWsGukQMizWep">
    <mxGraphModel dx="2899" dy="2154" grid="1" gridSize="10" guides="1" tooltips="1" connect="1" arrows="1" fold="1" page="1" pageScale="1" pageWidth="850" pageHeight="1100" math="0" shadow="0">
      <root>
        <mxCell id="0" />
        <mxCell id="1" parent="0" />
        <mxCell id="2Yg2LHqjRXKbSxi6IoRT-1" value="ConnectÃ© ?" style="html=1;blockSpacing=1;whiteSpace=wrap;shape=mxgraph.sysml.package2;xSize=90;overflow=fill;fontSize=13;align=left;spacing=0;strokeColor=#3a414a;strokeOpacity=100;fillOpacity=100;rounded=1;absoluteArcSize=1;arcSize=12;fillColor=#ffffff;strokeWidth=0.8;lucidId=EaHF96X8.tvs;" vertex="1" parent="1">
          <mxGeometry x="-30" y="435" width="950" height="165" as="geometry" />
        </mxCell>
        <mxCell id="2Yg2LHqjRXKbSxi6IoRT-2" value="" style="html=1;jettySize=18;whiteSpace=wrap;fontSize=13;strokeColor=#3a414a;strokeOpacity=100;dashed=1;fixDash=1;dashPattern=16 6;strokeWidth=0.8;rounded=1;arcSize=10;edgeStyle=orthogonalEdgeStyle;startArrow=none;endArrow=none;exitX=0.5;exitY=0.532;exitPerimeter=0;lucidId=v1FFFDz.naZg;" edge="1" parent="1" source="2Yg2LHqjRXKbSxi6IoRT-13">
          <mxGeometry width="100" height="100" relative="1" as="geometry">
            <Array as="points" />
            <mxPoint x="75" y="750" as="targetPoint" />
          </mxGeometry>
        </mxCell>
        <mxCell id="2Yg2LHqjRXKbSxi6IoRT-3" value="Tajet disponible ?" style="html=1;blockSpacing=1;whiteSpace=wrap;shape=mxgraph.sysml.package2;xSize=90;overflow=fill;fontSize=13;align=left;spacing=0;strokeColor=#3a414a;strokeOpacity=100;fillOpacity=100;rounded=1;absoluteArcSize=1;arcSize=12;fillColor=#ffffff;strokeWidth=0.8;lucidId=v1FFPSEIi-tn;" vertex="1" parent="1">
          <mxGeometry x="-30" y="165" width="950" height="165" as="geometry" />
        </mxCell>
        <mxCell id="2Yg2LHqjRXKbSxi6IoRT-4" value="" style="html=1;jettySize=18;whiteSpace=wrap;fontSize=13;fontFamily=helvetica;strokeColor=#3a414a;strokeOpacity=100;dashed=1;fixDash=1;dashPattern=16 6;strokeWidth=0.8;rounded=0;startArrow=none;endArrow=none;exitX=0.5;exitY=1.008;exitPerimeter=0;lucidId=v1FFHfVfvlW7;" edge="1" parent="1" source="2Yg2LHqjRXKbSxi6IoRT-10">
          <mxGeometry width="100" height="100" relative="1" as="geometry">
            <Array as="points" />
            <mxPoint x="307" y="750" as="targetPoint" />
          </mxGeometry>
        </mxCell>
        <mxCell id="2Yg2LHqjRXKbSxi6IoRT-5" value="" style="html=1;overflow=block;blockSpacing=1;whiteSpace=wrap;fontSize=13;spacing=0;strokeColor=#3a414a;strokeOpacity=100;fillOpacity=100;rounded=1;absoluteArcSize=1;arcSize=12;fillColor=#cfe4ff;strokeWidth=1.5;lucidId=v1FF5A5YYSHX;" vertex="1" parent="1">
          <mxGeometry x="293" y="-12" width="30" height="732" as="geometry" />
        </mxCell>
        <mxCell id="2Yg2LHqjRXKbSxi6IoRT-6" value="" style="html=1;jettySize=18;whiteSpace=wrap;fontSize=13;fontFamily=helvetica;strokeColor=#3a414a;strokeOpacity=100;dashed=1;fixDash=1;dashPattern=16 6;strokeWidth=0.8;rounded=1;arcSize=24;edgeStyle=orthogonalEdgeStyle;startArrow=none;endArrow=none;exitX=0.5;exitY=1.008;exitPerimeter=0;lucidId=v1FFkMSgJYMF;" edge="1" parent="1" source="2Yg2LHqjRXKbSxi6IoRT-11">
          <mxGeometry width="100" height="100" relative="1" as="geometry">
            <Array as="points">
              <mxPoint x="578" y="750" />
            </Array>
            <mxPoint x="576" y="750" as="targetPoint" />
          </mxGeometry>
        </mxCell>
        <mxCell id="2Yg2LHqjRXKbSxi6IoRT-7" value="" style="html=1;overflow=block;blockSpacing=1;whiteSpace=wrap;fontSize=13;spacing=0;strokeColor=#3a414a;strokeOpacity=100;fillOpacity=100;rounded=1;absoluteArcSize=1;arcSize=12;fillColor=#cfe4ff;strokeWidth=1.5;lucidId=v1FFwL31roLt;" vertex="1" parent="1">
          <mxGeometry x="562" y="30" width="30" height="660" as="geometry" />
        </mxCell>
        <mxCell id="2Yg2LHqjRXKbSxi6IoRT-8" value="" style="html=1;jettySize=18;whiteSpace=wrap;fontSize=13;fontFamily=helvetica;strokeColor=#3a414a;strokeOpacity=100;dashed=1;fixDash=1;dashPattern=16 6;strokeWidth=0.8;rounded=1;arcSize=24;edgeStyle=orthogonalEdgeStyle;startArrow=none;endArrow=none;exitX=0.5;exitY=1.008;exitPerimeter=0;lucidId=v1FFnASdpDkZ;" edge="1" parent="1" source="2Yg2LHqjRXKbSxi6IoRT-12">
          <mxGeometry width="100" height="100" relative="1" as="geometry">
            <Array as="points">
              <mxPoint x="849" y="750" />
            </Array>
            <mxPoint x="846" y="750" as="targetPoint" />
          </mxGeometry>
        </mxCell>
        <mxCell id="2Yg2LHqjRXKbSxi6IoRT-9" value="" style="html=1;overflow=block;blockSpacing=1;whiteSpace=wrap;fontSize=13;spacing=0;strokeColor=#3a414a;strokeOpacity=100;fillOpacity=100;rounded=1;absoluteArcSize=1;arcSize=12;fillColor=#cfe4ff;strokeWidth=1.5;lucidId=v1FFyLFOIz3S;" vertex="1" parent="1">
          <mxGeometry x="833" y="60" width="30" height="585" as="geometry" />
        </mxCell>
        <mxCell id="2Yg2LHqjRXKbSxi6IoRT-10" value="FRONT" style="html=1;overflow=block;blockSpacing=1;whiteSpace=wrap;fontSize=13.3;fontStyle=5;align=center;spacing=0;strokeColor=#3a414a;strokeOpacity=100;fillOpacity=100;rounded=1;absoluteArcSize=1;arcSize=12;fillColor=#6db1ff;strokeWidth=1.5;" vertex="1" parent="1">
          <mxGeometry x="236" y="-160" width="143" height="92" as="geometry" />
        </mxCell>
        <mxCell id="2Yg2LHqjRXKbSxi6IoRT-11" value="BACK" style="html=1;overflow=block;blockSpacing=1;whiteSpace=wrap;fontSize=13.3;fontStyle=5;align=center;spacing=0;strokeColor=#3a414a;strokeOpacity=100;fillOpacity=100;rounded=1;absoluteArcSize=1;arcSize=12;fillColor=#6db1ff;strokeWidth=1.5;" vertex="1" parent="1">
          <mxGeometry x="507" y="-160" width="143" height="92" as="geometry" />
        </mxCell>
        <mxCell id="2Yg2LHqjRXKbSxi6IoRT-12" value="BDD" style="html=1;overflow=block;blockSpacing=1;whiteSpace=wrap;fontSize=13.3;fontStyle=5;align=center;spacing=0;strokeColor=#3a414a;strokeOpacity=100;fillOpacity=100;rounded=1;absoluteArcSize=1;arcSize=12;fillColor=#6db1ff;strokeWidth=1.5;" vertex="1" parent="1">
          <mxGeometry x="777" y="-160" width="143" height="92" as="geometry" />
        </mxCell>
        <mxCell id="2Yg2LHqjRXKbSxi6IoRT-13" value="Utilisateur" style="html=1;overflow=block;blockSpacing=1;shape=umlActor;labelPosition=center;verticalLabelPosition=bottom;verticalAlign=top;whiteSpace=nowrap;fontSize=13.3;align=center;spacing=0;strokeColor=#3a414a;strokeOpacity=100;fillOpacity=100;rounded=1;absoluteArcSize=1;arcSize=12;fillColor=#ffffff;strokeWidth=0.8;lucidId=v1FF9d~u85Rc;" vertex="1" parent="1">
          <mxGeometry x="42" y="-136" width="60" height="135" as="geometry" />
        </mxCell>
        <mxCell id="2Yg2LHqjRXKbSxi6IoRT-14" value="" style="html=1;jettySize=18;whiteSpace=wrap;fontSize=13;strokeColor=#3a414a;strokeOpacity=100;strokeWidth=0.8;rounded=1;arcSize=10;edgeStyle=orthogonalEdgeStyle;startArrow=none;endArrow=block;endFill=1;lucidId=v1FFqKH6N7E1;" edge="1" parent="1">
          <mxGeometry width="100" height="100" relative="1" as="geometry">
            <Array as="points" />
            <mxPoint x="90" y="21" as="sourcePoint" />
            <mxPoint x="285" y="21" as="targetPoint" />
          </mxGeometry>
        </mxCell>
        <mxCell id="2Yg2LHqjRXKbSxi6IoRT-15" value="Lancer l&#39;application" style="text;html=1;resizable=0;labelBackgroundColor=default;align=center;verticalAlign=middle;fontSize=13.3;" vertex="1" parent="2Yg2LHqjRXKbSxi6IoRT-14">
          <mxGeometry relative="1" as="geometry">
            <mxPoint as="offset" />
          </mxGeometry>
        </mxCell>
        <mxCell id="2Yg2LHqjRXKbSxi6IoRT-16" value="" style="html=1;jettySize=18;whiteSpace=wrap;fontSize=13;strokeColor=#3a414a;strokeOpacity=100;strokeWidth=0.8;rounded=1;arcSize=10;edgeStyle=orthogonalEdgeStyle;startArrow=block;startFill=1;endArrow=none;lucidId=.zGFLZ5~9QT4;" edge="1" parent="1">
          <mxGeometry width="100" height="100" relative="1" as="geometry">
            <Array as="points" />
            <mxPoint x="90" y="58" as="sourcePoint" />
            <mxPoint x="285" y="58" as="targetPoint" />
          </mxGeometry>
        </mxCell>
        <mxCell id="2Yg2LHqjRXKbSxi6IoRT-17" value="Afficher la page d&#39;accueil" style="text;html=1;resizable=0;labelBackgroundColor=default;align=center;verticalAlign=middle;fontSize=13.3;" vertex="1" parent="2Yg2LHqjRXKbSxi6IoRT-16">
          <mxGeometry relative="1" as="geometry">
            <mxPoint as="offset" />
          </mxGeometry>
        </mxCell>
        <mxCell id="2Yg2LHqjRXKbSxi6IoRT-18" value="" style="html=1;jettySize=18;whiteSpace=wrap;fontSize=13;strokeColor=#3a414a;strokeOpacity=100;strokeWidth=0.8;rounded=1;arcSize=10;edgeStyle=orthogonalEdgeStyle;startArrow=none;endArrow=block;endFill=1;lucidId=WAGFiNiNLvOS;" edge="1" parent="1">
          <mxGeometry width="100" height="100" relative="1" as="geometry">
            <Array as="points" />
            <mxPoint x="90" y="90" as="sourcePoint" />
            <mxPoint x="285" y="90" as="targetPoint" />
          </mxGeometry>
        </mxCell>
        <mxCell id="2Yg2LHqjRXKbSxi6IoRT-19" value="Rechercher un trajet" style="text;html=1;resizable=0;labelBackgroundColor=default;align=center;verticalAlign=middle;fontSize=13.3;" vertex="1" parent="2Yg2LHqjRXKbSxi6IoRT-18">
          <mxGeometry relative="1" as="geometry">
            <mxPoint as="offset" />
          </mxGeometry>
        </mxCell>
        <mxCell id="2Yg2LHqjRXKbSxi6IoRT-20" value="" style="html=1;jettySize=18;whiteSpace=wrap;fontSize=13;strokeColor=#3a414a;strokeOpacity=100;strokeWidth=0.8;rounded=1;arcSize=10;edgeStyle=orthogonalEdgeStyle;startArrow=none;endArrow=block;endFill=1;lucidId=yBGFwxvmg4rZ;" edge="1" parent="1">
          <mxGeometry width="100" height="100" relative="1" as="geometry">
            <Array as="points" />
            <mxPoint x="330" y="90" as="sourcePoint" />
            <mxPoint x="555" y="90" as="targetPoint" />
          </mxGeometry>
        </mxCell>
        <mxCell id="2Yg2LHqjRXKbSxi6IoRT-21" value="Filtrer les trajets" style="text;html=1;resizable=0;labelBackgroundColor=default;align=center;verticalAlign=middle;fontSize=13.3;" vertex="1" parent="2Yg2LHqjRXKbSxi6IoRT-20">
          <mxGeometry relative="1" as="geometry">
            <mxPoint as="offset" />
          </mxGeometry>
        </mxCell>
        <mxCell id="2Yg2LHqjRXKbSxi6IoRT-22" value="" style="html=1;jettySize=18;whiteSpace=wrap;fontSize=13;strokeColor=#3a414a;strokeOpacity=100;strokeWidth=0.8;rounded=1;arcSize=10;edgeStyle=orthogonalEdgeStyle;startArrow=none;endArrow=block;endFill=1;lucidId=WBGF6nUA4K~S;" edge="1" parent="1">
          <mxGeometry width="100" height="100" relative="1" as="geometry">
            <Array as="points" />
            <mxPoint x="600" y="90" as="sourcePoint" />
            <mxPoint x="825" y="90" as="targetPoint" />
          </mxGeometry>
        </mxCell>
        <mxCell id="2Yg2LHqjRXKbSxi6IoRT-23" value="Obtenir les trajets enregistrÃ©s" style="text;html=1;resizable=0;labelBackgroundColor=default;align=center;verticalAlign=middle;fontSize=13.3;" vertex="1" parent="2Yg2LHqjRXKbSxi6IoRT-22">
          <mxGeometry relative="1" as="geometry">
            <mxPoint as="offset" />
          </mxGeometry>
        </mxCell>
        <mxCell id="2Yg2LHqjRXKbSxi6IoRT-24" value="" style="html=1;jettySize=18;whiteSpace=wrap;fontSize=13;strokeColor=#3a414a;strokeOpacity=100;dashed=1;fixDash=1;dashPattern=6 5;strokeWidth=0.8;rounded=1;arcSize=10;edgeStyle=orthogonalEdgeStyle;startArrow=block;startFill=1;endArrow=none;lucidId=qCGFuCRxZ9h0;" edge="1" parent="1">
          <mxGeometry width="100" height="100" relative="1" as="geometry">
            <Array as="points" />
            <mxPoint x="600" y="240" as="sourcePoint" />
            <mxPoint x="825" y="240" as="targetPoint" />
          </mxGeometry>
        </mxCell>
        <mxCell id="2Yg2LHqjRXKbSxi6IoRT-25" value="Afficher les trajets disponibles" style="text;html=1;resizable=0;labelBackgroundColor=default;align=center;verticalAlign=middle;fontSize=13.3;" vertex="1" parent="2Yg2LHqjRXKbSxi6IoRT-24">
          <mxGeometry relative="1" as="geometry">
            <mxPoint as="offset" />
          </mxGeometry>
        </mxCell>
        <mxCell id="2Yg2LHqjRXKbSxi6IoRT-26" value="Oui" style="group;spacingLeft=8;align=left;spacing=0;strokeColor=none;whiteSpace=wrap;fontSize=16.7;strokeOpacity=100;fillOpacity=0;rounded=1;absoluteArcSize=1;arcSize=9;fillColor=#ffffff;strokeWidth=1.5;verticalAlign=middle;html=1;" vertex="1" parent="1">
          <mxGeometry y="210" width="42" height="30" as="geometry" />
        </mxCell>
        <mxCell id="2Yg2LHqjRXKbSxi6IoRT-27" value="" style="shape=partialRectangle;right=0;fillColor=none;whiteSpace=wrap;fontSize=16.7;align=center;strokeColor=#3a414a;strokeWidth=1.5;" vertex="1" parent="2Yg2LHqjRXKbSxi6IoRT-26">
          <mxGeometry width="8" height="30" relative="1" as="geometry" />
        </mxCell>
        <mxCell id="2Yg2LHqjRXKbSxi6IoRT-28" value="Non" style="group;spacingLeft=8;align=left;spacing=0;strokeColor=none;whiteSpace=wrap;fontSize=16.7;strokeOpacity=100;fillOpacity=0;rounded=1;absoluteArcSize=1;arcSize=9;fillColor=#ffffff;strokeWidth=1.5;verticalAlign=middle;html=1;" vertex="1" parent="1">
          <mxGeometry y="285" width="42" height="30" as="geometry" />
        </mxCell>
        <mxCell id="2Yg2LHqjRXKbSxi6IoRT-29" value="" style="shape=partialRectangle;right=0;fillColor=none;whiteSpace=wrap;fontSize=16.7;align=center;strokeColor=#3a414a;strokeWidth=1.5;" vertex="1" parent="2Yg2LHqjRXKbSxi6IoRT-28">
          <mxGeometry width="8" height="30" relative="1" as="geometry" />
        </mxCell>
        <mxCell id="2Yg2LHqjRXKbSxi6IoRT-30" value="" style="html=1;jettySize=18;whiteSpace=wrap;fontSize=13;strokeColor=#3a414a;strokeOpacity=100;dashed=1;fixDash=1;dashPattern=6 5;strokeWidth=0.8;rounded=1;arcSize=10;edgeStyle=orthogonalEdgeStyle;startArrow=block;startFill=1;endArrow=none;lucidId=yIGF9leOHQqQ;" edge="1" parent="1">
          <mxGeometry width="100" height="100" relative="1" as="geometry">
            <Array as="points" />
            <mxPoint x="330" y="240" as="sourcePoint" />
            <mxPoint x="555" y="240" as="targetPoint" />
          </mxGeometry>
        </mxCell>
        <mxCell id="2Yg2LHqjRXKbSxi6IoRT-31" value="Proposer les trajets disponibles" style="text;html=1;resizable=0;labelBackgroundColor=default;align=center;verticalAlign=middle;fontSize=13.3;" vertex="1" parent="2Yg2LHqjRXKbSxi6IoRT-30">
          <mxGeometry relative="1" as="geometry">
            <mxPoint as="offset" />
          </mxGeometry>
        </mxCell>
        <mxCell id="2Yg2LHqjRXKbSxi6IoRT-32" value="" style="html=1;jettySize=18;whiteSpace=wrap;fontSize=13;strokeColor=#3a414a;strokeOpacity=100;dashed=1;fixDash=1;dashPattern=6 5;strokeWidth=0.8;rounded=1;arcSize=10;edgeStyle=orthogonalEdgeStyle;startArrow=block;startFill=1;endArrow=none;lucidId=GIGFloTq~G.m;" edge="1" parent="1">
          <mxGeometry width="100" height="100" relative="1" as="geometry">
            <Array as="points" />
            <mxPoint x="90" y="240" as="sourcePoint" />
            <mxPoint x="285" y="240" as="targetPoint" />
          </mxGeometry>
        </mxCell>
        <mxCell id="2Yg2LHqjRXKbSxi6IoRT-33" value="Afficher les trajets recherchÃ©s" style="text;html=1;resizable=0;labelBackgroundColor=default;align=center;verticalAlign=middle;fontSize=13.3;" vertex="1" parent="2Yg2LHqjRXKbSxi6IoRT-32">
          <mxGeometry relative="1" as="geometry">
            <mxPoint as="offset" />
          </mxGeometry>
        </mxCell>
        <mxCell id="2Yg2LHqjRXKbSxi6IoRT-34" value="" style="html=1;jettySize=18;whiteSpace=wrap;fontSize=13;strokeColor=#3a414a;strokeOpacity=100;dashed=1;fixDash=1;dashPattern=6 5;strokeWidth=0.8;rounded=1;arcSize=10;edgeStyle=orthogonalEdgeStyle;startArrow=block;startFill=1;endArrow=none;lucidId=iKGFGMv~U3AU;" edge="1" parent="1">
          <mxGeometry width="100" height="100" relative="1" as="geometry">
            <Array as="points" />
            <mxPoint x="600" y="300" as="sourcePoint" />
            <mxPoint x="825" y="300" as="targetPoint" />
          </mxGeometry>
        </mxCell>
        <mxCell id="2Yg2LHqjRXKbSxi6IoRT-35" value="Trajets indisponibles" style="text;html=1;resizable=0;labelBackgroundColor=default;align=center;verticalAlign=middle;fontSize=13.3;" vertex="1" parent="2Yg2LHqjRXKbSxi6IoRT-34">
          <mxGeometry relative="1" as="geometry">
            <mxPoint as="offset" />
          </mxGeometry>
        </mxCell>
        <mxCell id="2Yg2LHqjRXKbSxi6IoRT-36" value="" style="html=1;jettySize=18;whiteSpace=wrap;fontSize=13;strokeColor=#3a414a;strokeOpacity=100;dashed=1;fixDash=1;dashPattern=6 5;strokeWidth=0.8;rounded=1;arcSize=10;edgeStyle=orthogonalEdgeStyle;startArrow=block;startFill=1;endArrow=none;lucidId=IKGF8nJ.j6k~;" edge="1" parent="1">
          <mxGeometry width="100" height="100" relative="1" as="geometry">
            <Array as="points" />
            <mxPoint x="330" y="300" as="sourcePoint" />
            <mxPoint x="555" y="300" as="targetPoint" />
          </mxGeometry>
        </mxCell>
        <mxCell id="2Yg2LHqjRXKbSxi6IoRT-37" value="Message &quot;Aucun trajets trouvÃ©s&quot;" style="text;html=1;resizable=0;labelBackgroundColor=default;align=center;verticalAlign=middle;fontSize=13.3;" vertex="1" parent="2Yg2LHqjRXKbSxi6IoRT-36">
          <mxGeometry relative="1" as="geometry">
            <mxPoint as="offset" />
          </mxGeometry>
        </mxCell>
        <mxCell id="2Yg2LHqjRXKbSxi6IoRT-38" value="" style="html=1;jettySize=18;whiteSpace=wrap;fontSize=13;strokeColor=#3a414a;strokeOpacity=100;dashed=1;fixDash=1;dashPattern=6 5;strokeWidth=0.8;rounded=1;arcSize=10;edgeStyle=orthogonalEdgeStyle;startArrow=block;startFill=1;endArrow=none;lucidId=2KGFzRam3zVt;" edge="1" parent="1">
          <mxGeometry width="100" height="100" relative="1" as="geometry">
            <Array as="points" />
            <mxPoint x="90" y="300" as="sourcePoint" />
            <mxPoint x="285" y="300" as="targetPoint" />
          </mxGeometry>
        </mxCell>
        <mxCell id="2Yg2LHqjRXKbSxi6IoRT-39" value="Afficher le message" style="text;html=1;resizable=0;labelBackgroundColor=default;align=center;verticalAlign=middle;fontSize=13.3;" vertex="1" parent="2Yg2LHqjRXKbSxi6IoRT-38">
          <mxGeometry relative="1" as="geometry">
            <mxPoint as="offset" />
          </mxGeometry>
        </mxCell>
        <mxCell id="2Yg2LHqjRXKbSxi6IoRT-40" value="Diagramme de sÃ©quence EcoRide" style="html=1;overflow=block;blockSpacing=1;whiteSpace=wrap;fontSize=23.3;fontStyle=3;align=center;spacing=0;strokeColor=#3a414a;strokeOpacity=100;fillOpacity=100;rounded=1;absoluteArcSize=1;arcSize=9;fillColor=#ffffff;strokeWidth=1.5;lucidId=bVGFyNw~NQtx;" vertex="1" parent="1">
          <mxGeometry x="205" y="-285" width="480" height="45" as="geometry" />
        </mxCell>
        <mxCell id="2Yg2LHqjRXKbSxi6IoRT-41" value="" style="html=1;jettySize=18;whiteSpace=wrap;fontSize=13;strokeColor=#3a414a;strokeOpacity=100;dashed=1;fixDash=1;dashPattern=6 5;strokeWidth=0.8;rounded=1;arcSize=10;edgeStyle=orthogonalEdgeStyle;startArrow=none;endArrow=block;endFill=1;lucidId=~3GFak~vzMaC;" edge="1" parent="1">
          <mxGeometry width="100" height="100" relative="1" as="geometry">
            <Array as="points" />
            <mxPoint x="90" y="405" as="sourcePoint" />
            <mxPoint x="285" y="405" as="targetPoint" />
          </mxGeometry>
        </mxCell>
        <mxCell id="2Yg2LHqjRXKbSxi6IoRT-42" value="Se connecter" style="text;html=1;resizable=0;labelBackgroundColor=default;align=center;verticalAlign=middle;fontSize=13.3;" vertex="1" parent="2Yg2LHqjRXKbSxi6IoRT-41">
          <mxGeometry relative="1" as="geometry">
            <mxPoint as="offset" />
          </mxGeometry>
        </mxCell>
        <mxCell id="2Yg2LHqjRXKbSxi6IoRT-43" value="" style="html=1;jettySize=18;whiteSpace=wrap;fontSize=13;strokeColor=#3a414a;strokeOpacity=100;dashed=1;fixDash=1;dashPattern=6 5;strokeWidth=0.8;rounded=1;arcSize=10;edgeStyle=orthogonalEdgeStyle;startArrow=none;endArrow=block;endFill=1;lucidId=p4GF9UgqePss;" edge="1" parent="1">
          <mxGeometry width="100" height="100" relative="1" as="geometry">
            <Array as="points" />
            <mxPoint x="345" y="405" as="sourcePoint" />
            <mxPoint x="555" y="405" as="targetPoint" />
          </mxGeometry>
        </mxCell>
        <mxCell id="2Yg2LHqjRXKbSxi6IoRT-44" value="Saisie identifiant et mot de passe" style="text;html=1;resizable=0;labelBackgroundColor=default;align=center;verticalAlign=middle;fontSize=13.3;" vertex="1" parent="2Yg2LHqjRXKbSxi6IoRT-43">
          <mxGeometry relative="1" as="geometry">
            <mxPoint as="offset" />
          </mxGeometry>
        </mxCell>
        <mxCell id="2Yg2LHqjRXKbSxi6IoRT-45" value="" style="html=1;jettySize=18;whiteSpace=wrap;fontSize=13;strokeColor=#3a414a;strokeOpacity=100;dashed=1;fixDash=1;dashPattern=6 5;strokeWidth=0.8;rounded=1;arcSize=10;edgeStyle=orthogonalEdgeStyle;startArrow=none;endArrow=block;endFill=1;lucidId=E4GFt8Zq3v1Z;" edge="1" parent="1">
          <mxGeometry width="100" height="100" relative="1" as="geometry">
            <Array as="points" />
            <mxPoint x="600" y="405" as="sourcePoint" />
            <mxPoint x="825" y="405" as="targetPoint" />
          </mxGeometry>
        </mxCell>
        <mxCell id="2Yg2LHqjRXKbSxi6IoRT-46" value="User id and password trouvÃ©s" style="text;html=1;resizable=0;labelBackgroundColor=default;align=center;verticalAlign=middle;fontSize=13.3;" vertex="1" parent="2Yg2LHqjRXKbSxi6IoRT-45">
          <mxGeometry relative="1" as="geometry">
            <mxPoint as="offset" />
          </mxGeometry>
        </mxCell>
        <mxCell id="2Yg2LHqjRXKbSxi6IoRT-47" value="Oui" style="group;spacingLeft=8;align=left;spacing=0;strokeColor=none;whiteSpace=wrap;fontSize=16.7;strokeOpacity=100;fillOpacity=0;rounded=1;absoluteArcSize=1;arcSize=9;fillColor=#ffffff;strokeWidth=1.5;verticalAlign=middle;html=1;" vertex="1" parent="1">
          <mxGeometry y="480" width="42" height="30" as="geometry" />
        </mxCell>
        <mxCell id="2Yg2LHqjRXKbSxi6IoRT-48" value="" style="shape=partialRectangle;right=0;fillColor=none;whiteSpace=wrap;fontSize=16.7;align=center;strokeColor=#3a414a;strokeWidth=1.5;" vertex="1" parent="2Yg2LHqjRXKbSxi6IoRT-47">
          <mxGeometry width="8" height="30" relative="1" as="geometry" />
        </mxCell>
        <mxCell id="2Yg2LHqjRXKbSxi6IoRT-49" value="Non" style="group;spacingLeft=8;align=left;spacing=0;strokeColor=none;whiteSpace=wrap;fontSize=16.7;strokeOpacity=100;fillOpacity=0;rounded=1;absoluteArcSize=1;arcSize=9;fillColor=#ffffff;strokeWidth=1.5;verticalAlign=middle;html=1;" vertex="1" parent="1">
          <mxGeometry y="555" width="42" height="30" as="geometry" />
        </mxCell>
        <mxCell id="2Yg2LHqjRXKbSxi6IoRT-50" value="" style="shape=partialRectangle;right=0;fillColor=none;whiteSpace=wrap;fontSize=16.7;align=center;strokeColor=#3a414a;strokeWidth=1.5;" vertex="1" parent="2Yg2LHqjRXKbSxi6IoRT-49">
          <mxGeometry width="8" height="30" relative="1" as="geometry" />
        </mxCell>
        <mxCell id="2Yg2LHqjRXKbSxi6IoRT-51" value="" style="html=1;jettySize=18;whiteSpace=wrap;fontSize=13;strokeColor=#3a414a;strokeOpacity=100;dashed=1;fixDash=1;dashPattern=6 5;strokeWidth=0.8;rounded=1;arcSize=10;edgeStyle=orthogonalEdgeStyle;startArrow=block;startFill=1;endArrow=none;lucidId=_cHF~vhQ.YEd;" edge="1" parent="1">
          <mxGeometry width="100" height="100" relative="1" as="geometry">
            <Array as="points" />
            <mxPoint x="600" y="495" as="sourcePoint" />
            <mxPoint x="825" y="495" as="targetPoint" />
          </mxGeometry>
        </mxCell>
        <mxCell id="2Yg2LHqjRXKbSxi6IoRT-52" value="User id and password acceptÃ©s" style="text;html=1;resizable=0;labelBackgroundColor=default;align=center;verticalAlign=middle;fontSize=13.3;" vertex="1" parent="2Yg2LHqjRXKbSxi6IoRT-51">
          <mxGeometry relative="1" as="geometry">
            <mxPoint as="offset" />
          </mxGeometry>
        </mxCell>
        <mxCell id="2Yg2LHqjRXKbSxi6IoRT-53" value="" style="html=1;jettySize=18;whiteSpace=wrap;fontSize=13;strokeColor=#3a414a;strokeOpacity=100;dashed=1;fixDash=1;dashPattern=6 5;strokeWidth=0.8;rounded=1;arcSize=10;edgeStyle=orthogonalEdgeStyle;startArrow=block;startFill=1;endArrow=none;lucidId=QdHF5XH~A08V;" edge="1" parent="1">
          <mxGeometry width="100" height="100" relative="1" as="geometry">
            <Array as="points" />
            <mxPoint x="330" y="495" as="sourcePoint" />
            <mxPoint x="555" y="495" as="targetPoint" />
          </mxGeometry>
        </mxCell>
        <mxCell id="2Yg2LHqjRXKbSxi6IoRT-54" value="Message &quot;Identifiant acceptÃ©&quot;" style="text;html=1;resizable=0;labelBackgroundColor=default;align=center;verticalAlign=middle;fontSize=13.3;" vertex="1" parent="2Yg2LHqjRXKbSxi6IoRT-53">
          <mxGeometry relative="1" as="geometry">
            <mxPoint as="offset" />
          </mxGeometry>
        </mxCell>
        <mxCell id="2Yg2LHqjRXKbSxi6IoRT-55" value="" style="html=1;jettySize=18;whiteSpace=wrap;fontSize=13;strokeColor=#3a414a;strokeOpacity=100;dashed=1;fixDash=1;dashPattern=6 5;strokeWidth=0.8;rounded=1;arcSize=10;edgeStyle=orthogonalEdgeStyle;startArrow=block;startFill=1;endArrow=none;lucidId=5eHFL4fpBbVc;" edge="1" parent="1">
          <mxGeometry width="100" height="100" relative="1" as="geometry">
            <Array as="points" />
            <mxPoint x="90" y="495" as="sourcePoint" />
            <mxPoint x="285" y="495" as="targetPoint" />
          </mxGeometry>
        </mxCell>
        <mxCell id="2Yg2LHqjRXKbSxi6IoRT-56" value="ConnectÃ©" style="text;html=1;resizable=0;labelBackgroundColor=default;align=center;verticalAlign=middle;fontSize=13.3;" vertex="1" parent="2Yg2LHqjRXKbSxi6IoRT-55">
          <mxGeometry relative="1" as="geometry">
            <mxPoint as="offset" />
          </mxGeometry>
        </mxCell>
        <mxCell id="2Yg2LHqjRXKbSxi6IoRT-57" value="" style="html=1;jettySize=18;whiteSpace=wrap;fontSize=13;strokeColor=#3a414a;strokeOpacity=100;dashed=1;fixDash=1;dashPattern=6 5;strokeWidth=0.8;rounded=1;arcSize=10;edgeStyle=orthogonalEdgeStyle;startArrow=block;startFill=1;endArrow=none;lucidId=ufHFuxS-ZPmu;" edge="1" parent="1">
          <mxGeometry width="100" height="100" relative="1" as="geometry">
            <Array as="points" />
            <mxPoint x="600" y="570" as="sourcePoint" />
            <mxPoint x="825" y="570" as="targetPoint" />
          </mxGeometry>
        </mxCell>
        <mxCell id="2Yg2LHqjRXKbSxi6IoRT-58" value="User id and password inexistants" style="text;html=1;resizable=0;labelBackgroundColor=default;align=center;verticalAlign=middle;fontSize=13.3;" vertex="1" parent="2Yg2LHqjRXKbSxi6IoRT-57">
          <mxGeometry relative="1" as="geometry">
            <mxPoint as="offset" />
          </mxGeometry>
        </mxCell>
        <mxCell id="2Yg2LHqjRXKbSxi6IoRT-59" value="" style="html=1;jettySize=18;whiteSpace=wrap;fontSize=13;strokeColor=#3a414a;strokeOpacity=100;dashed=1;fixDash=1;dashPattern=6 5;strokeWidth=0.8;rounded=1;arcSize=10;edgeStyle=orthogonalEdgeStyle;startArrow=block;startFill=1;endArrow=none;lucidId=2fHFFgIS~HXf;" edge="1" parent="1">
          <mxGeometry width="100" height="100" relative="1" as="geometry">
            <Array as="points" />
            <mxPoint x="333" y="570" as="sourcePoint" />
            <mxPoint x="555" y="570" as="targetPoint" />
          </mxGeometry>
        </mxCell>
        <mxCell id="2Yg2LHqjRXKbSxi6IoRT-60" value="Message &quot;Identifiants inexistants&quot;" style="text;html=1;resizable=0;labelBackgroundColor=default;align=center;verticalAlign=middle;fontSize=13.3;" vertex="1" parent="2Yg2LHqjRXKbSxi6IoRT-59">
          <mxGeometry relative="1" as="geometry">
            <mxPoint as="offset" />
          </mxGeometry>
        </mxCell>
        <mxCell id="2Yg2LHqjRXKbSxi6IoRT-61" value="" style="html=1;jettySize=18;whiteSpace=wrap;fontSize=13;strokeColor=#3a414a;strokeOpacity=100;dashed=1;fixDash=1;dashPattern=6 5;strokeWidth=0.8;rounded=1;arcSize=10;edgeStyle=orthogonalEdgeStyle;startArrow=block;startFill=1;endArrow=none;lucidId=wgHF9hvt-ZR2;" edge="1" parent="1">
          <mxGeometry width="100" height="100" relative="1" as="geometry">
            <Array as="points" />
            <mxPoint x="90" y="570" as="sourcePoint" />
            <mxPoint x="285" y="570" as="targetPoint" />
          </mxGeometry>
        </mxCell>
        <mxCell id="2Yg2LHqjRXKbSxi6IoRT-62" value="Impossible de se connecter" style="text;html=1;resizable=0;labelBackgroundColor=default;align=center;verticalAlign=middle;fontSize=13.3;" vertex="1" parent="2Yg2LHqjRXKbSxi6IoRT-61">
          <mxGeometry relative="1" as="geometry">
            <mxPoint as="offset" />
          </mxGeometry>
        </mxCell>
      </root>
    </mxGraphModel>
  </diagram>
</mxfile>
